<svg width="33" height="24" viewBox="0 0 33 24" fill="none" xmlns="http://www.w3.org/2000/svg">
<path d="M11.307 23.8419C11.0341 23.8419 10.7783 23.7907 10.5395 23.6884C10.3008 23.586 10.0791 23.4326 9.87442 23.2279L0.613953 13.9674C0.204651 13.5581 0 13.0636 0 12.4837C0 11.9039 0.204651 11.4093 0.613953 11C1.02326 10.5907 1.5093 10.386 2.07209 10.386C2.63488 10.386 3.12093 10.5907 3.53023 11L11.307 18.7767L29.5209 0.613953C29.8961 0.204651 30.3651 0 30.9279 0C31.4907 0 31.9767 0.204651 32.386 0.613953C32.7953 1.02326 33 1.51783 33 2.09767C33 2.67752 32.7953 3.15504 32.386 3.53023L12.7395 23.2279C12.5349 23.4326 12.3132 23.586 12.0744 23.6884C11.8357 23.7907 11.5798 23.8419 11.307 23.8419Z" fill="#34C759"/>
</svg>
