<svg width="24" height="22" viewBox="0 0 24 22" fill="none" xmlns="http://www.w3.org/2000/svg">
<path d="M7.63785 0.0178137C9.04808 -0.183497 10.542 1.34409 10.9722 3.45193C11.4024 5.54793 10.6256 7.41894 9.21539 7.63209C7.81712 7.84524 6.31128 6.31765 5.86909 4.20981C5.4269 2.11381 6.22762 0.242808 7.63785 0.0178137ZM16.1829 0.0178137C17.6051 0.242808 18.3938 2.11381 17.9755 4.20981C17.5214 6.31765 16.0275 7.84524 14.6173 7.63209C13.1951 7.41894 12.4183 5.54793 12.8605 3.45193C13.2907 1.34409 14.7846 -0.183497 16.1829 0.0178137ZM1.24402 5.46504C2.60644 4.88479 4.45886 5.93871 5.4269 7.77419C6.33518 9.64519 6.02445 11.6109 4.67398 12.1912C3.32351 12.7714 1.48304 11.7293 0.538901 9.87019C-0.405235 8.01102 -0.0706046 6.03345 1.24402 5.46504ZM22.756 5.46504C24.0706 6.03345 24.4052 8.01102 23.4611 9.87019C22.517 11.7293 20.6765 12.7714 19.326 12.1912C17.9755 11.6109 17.6648 9.64519 18.5731 7.77419C19.5411 5.93871 21.3936 4.88479 22.756 5.46504ZM20.7602 18.2305C20.808 19.3436 19.9475 20.5752 18.9197 21.037C16.7804 22.008 14.2468 19.9949 11.8685 19.9949C9.49027 19.9949 6.93274 22.0909 4.82934 21.037C3.63423 20.4568 2.80961 18.9173 2.96497 17.6384C3.18009 15.874 5.31934 14.9266 6.58615 13.6359C8.27126 11.9662 9.46637 8.82811 11.8685 8.82811C14.2588 8.82811 15.5256 11.9188 17.139 13.6359C18.4655 15.0806 20.6765 16.3003 20.7602 18.2305Z" fill="#E91E63"/>
</svg>
