<svg width="20" height="16" viewBox="0 0 20 16" fill="none" xmlns="http://www.w3.org/2000/svg">
<path d="M20 1.60305V14.3762C20 14.8004 19.8431 15.1737 19.5292 15.4962C19.2153 15.8182 18.8379 15.9792 18.397 15.9792L1.60305 15.9792C1.16214 15.9792 0.784733 15.8182 0.47084 15.4962C0.156947 15.1737 0 14.8004 0 14.3762L0 1.60305C0 1.17883 0.156947 0.805497 0.47084 0.483054C0.784733 0.161018 1.16214 0 1.60305 0L18.397 0C18.8379 0 19.2153 0.161018 19.5292 0.483054C19.8431 0.805497 20 1.17883 20 1.60305ZM1.60305 4.14718L18.397 4.14718V1.60305L1.60305 1.60305L1.60305 4.14718ZM1.60305 7.55725L1.60305 14.3762L18.397 14.3762V7.55725L1.60305 7.55725ZM1.60305 14.3762L1.60305 1.60305L1.60305 14.3762Z" fill="#B7B7B7"/>
</svg>
