<svg width="22" height="22" viewBox="0 0 22 22" fill="none" xmlns="http://www.w3.org/2000/svg">
<path d="M5.49999 3.29999C6.72099 3.29999 7.69998 4.28999 7.69998 5.49999C7.69998 6.70999 6.72099 7.69998 5.49999 7.69998C4.27899 7.69998 3.29999 6.72099 3.29999 5.49999C3.29999 4.27899 4.28999 3.29999 5.49999 3.29999ZM19.8 12.1V3.11299C19.8 1.397 18.403 0 16.687 0C15.862 0 15.07 0.329999 14.487 0.912998L13.112 2.288C12.936 2.233 12.749 2.2 12.551 2.2C12.1 2.2 11.704 2.332 11.363 2.552L14.399 5.58799C14.619 5.24699 14.751 4.83999 14.751 4.39999C14.751 4.20199 14.718 4.02599 14.674 3.84999L16.049 2.46399C16.214 2.299 16.445 2.2 16.687 2.2C17.193 2.2 17.6 2.60699 17.6 3.11299V12.1H10.065C9.73498 11.869 9.43798 11.605 9.16298 11.308L7.62299 9.60298C7.41399 9.34998 7.14999 9.18498 6.86399 9.05298C6.52299 8.88798 6.14899 8.79998 5.76399 8.79998C4.39999 8.79998 3.29999 9.89998 3.29999 11.275V12.1H0V18.7C0 19.91 0.989998 20.9 2.2 20.9C2.2 21.505 2.69499 22 3.29999 22H18.7C19.305 22 19.8 21.505 19.8 20.9C21.01 20.9 22 19.91 22 18.7V12.1H19.8Z" fill="#66BB6A"/>
</svg>
