<svg width="16" height="22" viewBox="0 0 16 22" fill="none" xmlns="http://www.w3.org/2000/svg">
<path d="M13 14.244V21.116C13 21.2045 12.9766 21.2914 12.932 21.3678C12.8875 21.4442 12.8235 21.5075 12.7465 21.5511C12.6696 21.5947 12.5824 21.6171 12.4939 21.6161C12.4055 21.615 12.3189 21.5905 12.243 21.545L8 18.999L3.757 21.545C3.68104 21.5905 3.59436 21.615 3.50581 21.6161C3.41727 21.6171 3.33004 21.5946 3.25304 21.5509C3.17605 21.5071 3.11205 21.4437 3.06759 21.3671C3.02313 21.2906 2.9998 21.2035 3 21.115V14.245C1.70615 13.2091 0.765992 11.7969 0.309459 10.2035C-0.147074 8.61019 -0.0974441 6.91439 0.451491 5.35047C1.00043 3.78655 2.02156 2.43175 3.37378 1.47328C4.726 0.514807 6.34254 0 8 0C9.65746 0 11.274 0.514807 12.6262 1.47328C13.9784 2.43175 14.9996 3.78655 15.5485 5.35047C16.0974 6.91439 16.1471 8.61019 15.6905 10.2035C15.234 11.7969 14.2939 13.2091 13 14.245V14.244ZM5 15.417V18.467L8 16.667L11 18.467V15.417C10.0468 15.8025 9.02816 16.0001 8 15.999C6.97184 16.0001 5.95316 15.8025 5 15.417ZM8 13.999C9.5913 13.999 11.1174 13.3669 12.2426 12.2416C13.3679 11.1164 14 9.5903 14 7.999C14 6.4077 13.3679 4.88158 12.2426 3.75636C11.1174 2.63114 9.5913 1.999 8 1.999C6.4087 1.999 4.88258 2.63114 3.75736 3.75636C2.63214 4.88158 2 6.4077 2 7.999C2 9.5903 2.63214 11.1164 3.75736 12.2416C4.88258 13.3669 6.4087 13.999 8 13.999Z" fill="#B7B7B7"/>
</svg>
