<svg width="16" height="16" viewBox="0 0 16 16" fill="none" xmlns="http://www.w3.org/2000/svg">
<path d="M7.00669 15.1843L0.33141 8.53472C0.212379 8.41569 0.127387 8.29259 0.0764322 8.1654C0.0254774 8.03781 0 7.90614 0 7.7704C0 7.63466 0.0254774 7.50299 0.0764322 7.3754C0.127387 7.24822 0.212379 7.12511 0.33141 7.00608L7.03176 0.305729C7.23558 0.10191 7.48607 0 7.78324 0C8.08082 0 8.33151 0.110266 8.53533 0.330799C8.75587 0.568859 8.86613 0.832194 8.86613 1.1208C8.86613 1.40941 8.76422 1.65562 8.5604 1.85944L3.74518 6.67467H14.9043C15.21 6.67467 15.4691 6.78086 15.6814 6.99324C15.8938 7.20562 16 7.46467 16 7.7704C16 8.07613 15.8938 8.3309 15.6814 8.53472C15.4691 8.73854 15.21 8.84045 14.9043 8.84045H3.74518L8.5604 13.6814C8.78134 13.9019 8.88753 14.1524 8.87897 14.4328C8.87041 14.7129 8.76422 14.9719 8.5604 15.21C8.32275 15.4305 8.05962 15.5408 7.77101 15.5408C7.482 15.5408 7.22722 15.422 7.00669 15.1843Z" fill="#2F2F30"/>
</svg>
