<svg width="19" height="22" viewBox="0 0 19 22" fill="none" xmlns="http://www.w3.org/2000/svg">
<path d="M9.50001 12.4082C8.10025 12.4082 6.75783 11.8635 5.76805 10.8939C4.77828 9.92431 4.22222 8.60929 4.22222 7.2381H6.33334C6.33334 8.06081 6.66697 8.84983 7.26083 9.43157C7.8547 10.0133 8.66015 10.3401 9.50001 10.3401C10.3399 10.3401 11.1453 10.0133 11.7392 9.43157C12.333 8.84983 12.6667 8.06081 12.6667 7.2381H14.7778C14.7778 8.60929 14.2217 9.92431 13.232 10.8939C12.2422 11.8635 10.8998 12.4082 9.50001 12.4082ZM9.50001 2.06803C10.3399 2.06803 11.1453 2.39485 11.7392 2.9766C12.333 3.55834 12.6667 4.34736 12.6667 5.17007H6.33334C6.33334 4.34736 6.66697 3.55834 7.26083 2.9766C7.8547 2.39485 8.66015 2.06803 9.50001 2.06803ZM16.8889 5.17007H14.7778C14.7778 4.49113 14.6413 3.81883 14.376 3.19157C14.1108 2.56431 13.722 1.99436 13.232 1.51428C12.7419 1.03419 12.1601 0.653369 11.5197 0.393548C10.8794 0.133728 10.1931 0 9.50001 0C8.10025 0 6.75783 0.544702 5.76805 1.51428C4.77828 2.48385 4.22222 3.79888 4.22222 5.17007H2.11111C0.939445 5.17007 0 6.09034 0 7.2381V19.6463C0 20.1947 0.22242 20.7208 0.61833 21.1086C1.01424 21.4964 1.55121 21.7143 2.11111 21.7143H16.8889C17.4488 21.7143 17.9858 21.4964 18.3817 21.1086C18.7776 20.7208 19 20.1947 19 19.6463V7.2381C19 6.09034 18.05 5.17007 16.8889 5.17007Z" fill="#8D62F7"/>
</svg>
