<svg width="14" height="13" viewBox="0 0 14 13" fill="none" xmlns="http://www.w3.org/2000/svg">
<path d="M9.57894 6.15789C9.7728 6.15789 9.9353 6.09232 10.0664 5.96118C10.1976 5.83004 10.2632 5.66754 10.2632 5.47368C10.2632 5.27982 10.1976 5.11732 10.0664 4.98618C9.9353 4.85504 9.7728 4.78947 9.57894 4.78947C9.38508 4.78947 9.22258 4.85504 9.09144 4.98618C8.9603 5.11732 8.89473 5.27982 8.89473 5.47368C8.89473 5.66754 8.9603 5.83004 9.09144 5.96118C9.22258 6.09232 9.38508 6.15789 9.57894 6.15789ZM4.61842 4.44737H7.01315C7.1614 4.44737 7.28399 4.3989 7.38092 4.30197C7.47785 4.20504 7.52631 4.08245 7.52631 3.93421C7.52631 3.78596 7.47785 3.66338 7.38092 3.56645C7.28399 3.46952 7.1614 3.42105 7.01315 3.42105H4.61842C4.47017 3.42105 4.34759 3.46952 4.25066 3.56645C4.15373 3.66338 4.10526 3.78596 4.10526 3.93421C4.10526 4.08245 4.15373 4.20504 4.25066 4.30197C4.34759 4.3989 4.47017 4.44737 4.61842 4.44737ZM2.56579 13C2.32631 13 2.1011 12.9202 1.89013 12.7605C1.67917 12.6009 1.53947 12.407 1.47105 12.1789C1.18596 11.1982 0.949342 10.3515 0.761184 9.63881C0.573026 8.92609 0.42193 8.30175 0.307895 7.76579C0.19386 7.22982 0.114035 6.75372 0.068421 6.3375C0.0228069 5.92127 0 5.5193 0 5.13158C0 4.08245 0.364912 3.19298 1.09474 2.46316C1.82456 1.73333 2.71403 1.36842 3.76316 1.36842H7.18421C7.4921 0.957894 7.88267 0.627193 8.35592 0.376316C8.82916 0.125439 9.35087 0 9.92105 0C10.2061 0 10.4485 0.0997807 10.648 0.299342C10.8476 0.498903 10.9474 0.741228 10.9474 1.02632C10.9474 1.09474 10.9388 1.16316 10.9217 1.23158C10.9046 1.3 10.8846 1.36272 10.8618 1.41974C10.8162 1.54517 10.7735 1.67061 10.7335 1.79605C10.6936 1.92149 10.6623 2.05833 10.6395 2.20658L12.196 3.76316H13.171C13.3193 3.76316 13.4419 3.81162 13.5388 3.90855C13.6357 4.00548 13.6842 4.12807 13.6842 4.27631V8.15921C13.6842 8.27324 13.6528 8.37587 13.5901 8.4671C13.5274 8.55833 13.439 8.62105 13.325 8.65526L11.7513 9.16842L10.8276 12.2645C10.7592 12.4925 10.6338 12.6721 10.4513 12.8033C10.2689 12.9344 10.0636 13 9.83552 13H7.86842C7.58333 13 7.34101 12.9002 7.14144 12.7007C6.94188 12.5011 6.8421 12.2588 6.8421 11.9737V11.6316H5.47368V11.9737C5.47368 12.2588 5.3739 12.5011 5.17434 12.7007C4.97478 12.9002 4.73245 13 4.44737 13H2.56579ZM2.48026 11.9737H4.44737V10.6053H7.86842V11.9737H9.83552L10.9132 8.38157L12.6579 7.78289V4.78947H11.7684L9.57894 2.6C9.59035 2.40614 9.62171 2.16952 9.67302 1.89013C9.72434 1.61074 9.79561 1.3 9.88684 0.957894C9.39649 1.08333 8.96315 1.27149 8.58684 1.52237C8.21052 1.77324 7.93684 2.06403 7.76579 2.39474H3.76316C3.01052 2.39474 2.36623 2.66272 1.83026 3.19868C1.2943 3.73465 1.02632 4.37895 1.02632 5.13158C1.02632 5.61052 1.15175 6.44583 1.40263 7.6375C1.65351 8.82916 2.01272 10.2746 2.48026 11.9737Z" fill="#E19500"/>
</svg>
