<svg width="30" height="22" viewBox="0 0 30 22" fill="none" xmlns="http://www.w3.org/2000/svg">
<path d="M2.04546 0H27.9546C29.1 0 30 0.859505 30 1.98347V17.1901C30 18.3141 29.1 19.1736 27.9546 19.1736H2.04546C0.886364 19.1736 0 18.3141 0 17.1901V1.98347C0 0.859505 0.886364 0 2.04546 0ZM11.8773 5.28926V13.8843L19.6636 9.52067L11.8773 5.28926ZM22.1591 21.8182H7.70455C7.29546 21.8182 7.02273 21.5537 7.02273 21.157C7.02273 20.7603 7.29546 20.4959 7.70455 20.4959H22.2955C22.7046 20.4959 22.9773 20.7603 22.9773 21.157C22.9773 21.5537 22.5682 21.8182 22.1591 21.8182Z" fill="#77ADD9"/>
</svg>
