<svg width="14" height="14" viewBox="0 0 14 14" fill="none" xmlns="http://www.w3.org/2000/svg">
<path d="M7 14C6.77925 14 6.59251 13.9194 6.43978 13.7581C6.28705 13.5972 6.21068 13.4064 6.21068 13.1856V7.78932H0.814365C0.576919 7.78932 0.381829 7.71295 0.229098 7.56022C0.0763658 7.40749 0 7.22075 0 7C0 6.76255 0.0763658 6.56746 0.229098 6.41473C0.381829 6.262 0.576919 6.18563 0.814365 6.18563H6.21068V0.788707C6.21068 0.568366 6.28705 0.381829 6.43978 0.229098C6.59251 0.0763658 6.77925 0 7 0C7.22075 0 7.41176 0.0763658 7.57305 0.229098C7.73393 0.381829 7.81436 0.568366 7.81436 0.788707V6.18563H13.1856C13.4231 6.18563 13.6182 6.26607 13.7709 6.42695C13.9236 6.58823 14 6.77925 14 7C14 7.22075 13.9236 7.40749 13.7709 7.56022C13.6182 7.71295 13.4231 7.78932 13.1856 7.78932H7.81436V13.1856C7.81436 13.4064 7.73393 13.5972 7.57305 13.7581C7.41176 13.9194 7.22075 14 7 14Z" fill="#303F9F"/>
</svg>
