<svg width="20" height="20" viewBox="0 0 20 20" fill="none" xmlns="http://www.w3.org/2000/svg">
<path d="M10.814 9.18595H18.3713C18.1848 7.20122 17.3791 5.48356 15.9542 4.03298C14.5293 2.5828 12.8159 1.78137 10.814 1.6287V9.18595ZM9.21099 18.3713V1.6287C7.05689 1.83226 5.25028 2.73547 3.79114 4.33832C2.33242 5.94158 1.60305 7.8288 1.60305 10C1.60305 12.1712 2.33242 14.0584 3.79114 15.6617C5.25028 17.2645 7.05689 18.1677 9.21099 18.3713ZM10.814 18.3713C12.7988 18.2019 14.5036 17.3962 15.9285 15.9542C17.3535 14.5122 18.1677 12.7904 18.3713 10.789H10.814V18.3713ZM10 20C8.60885 20 7.30687 19.737 6.09404 19.211C4.88122 18.6854 3.82534 17.9729 2.92641 17.0736C2.02707 16.1747 1.31461 15.1188 0.789007 13.906C0.263002 12.6931 0 11.3911 0 10C0 8.60885 0.263002 7.30687 0.789007 6.09404C1.31461 4.88122 2.02707 3.82534 2.92641 2.92641C3.82534 2.02707 4.88122 1.31461 6.09404 0.789007C7.30687 0.263002 8.60885 0 10 0C11.3911 0 12.6931 0.263002 13.906 0.789007C15.1188 1.31461 16.1789 2.02707 17.0864 2.92641C17.9939 3.82534 18.7064 4.88122 19.2238 6.09404C19.7413 7.30687 20 8.60885 20 10C20 11.3911 19.7413 12.6931 19.2238 13.906C18.7064 15.1188 17.9939 16.1747 17.0864 17.0736C16.1789 17.9729 15.1188 18.6854 13.906 19.211C12.6931 19.737 11.3911 20 10 20Z" fill="#B7B7B7"/>
</svg>
