<svg width="12" height="13" viewBox="0 0 12 13" fill="none" xmlns="http://www.w3.org/2000/svg">
<path d="M1.18522 13C0.858931 13 0.579744 12.884 0.347666 12.6519C0.115889 12.4198 0 12.1408 0 11.8148V4.72239C0 4.53426 0.040787 4.35546 0.122361 4.18599C0.203633 4.01682 0.319522 3.8758 0.470027 3.76292L5.19241 0.225757C5.30529 0.150505 5.42133 0.0940655 5.54053 0.0564393C5.65943 0.0188131 5.78164 0 5.90716 0C6.03268 0 6.15489 0.0188131 6.27379 0.0564393C6.39299 0.0940655 6.50903 0.150505 6.62191 0.225757L11.3443 3.76292C11.4948 3.8758 11.6107 4.01682 11.692 4.18599C11.7735 4.35546 11.8143 4.53426 11.8143 4.72239V11.8148C11.8143 12.1408 11.6983 12.4198 11.4662 12.6519C11.2344 12.884 10.9554 13 10.6291 13H7.44999V7.78862H4.3833V13H1.18522Z" fill="#303F9F"/>
</svg>
