<svg width="24" height="22" viewBox="0 0 24 22" fill="none" xmlns="http://www.w3.org/2000/svg">
<path d="M24 11.8519C24 13.1674 22.932 14.2222 21.6 14.2222H2.4C1.08 14.2222 0 13.1674 0 11.8519C0 10.5363 1.08 9.48148 2.4 9.48148H13.2L16.2 11.8519L19.2 9.48148H21.6C22.932 9.48148 24 10.5481 24 11.8519ZM12 0C1.2 0 1.2 7.11111 1.2 7.11111H22.8C22.8 7.11111 22.8 0 12 0ZM1.2 17.7778C1.2 19.7452 2.808 21.3333 4.8 21.3333H19.2C21.192 21.3333 22.8 19.7452 22.8 17.7778V16.5926H1.2V17.7778Z" fill="#EB6842"/>
</svg>
