<svg width="23" height="22" viewBox="0 0 23 22" fill="none" xmlns="http://www.w3.org/2000/svg">
<path d="M20.7 13.6718H2.3V6.83592H5.75001V9.11457H8.05001V6.83592H14.95V9.11457H17.25V6.83592H20.7V13.6718ZM20.7 19.3685H2.3V17.0898H20.7V19.3685ZM8.05001 2.27864H14.95V4.55728H8.05001V2.27864ZM20.7 4.55728H17.25V2.27864C17.25 1.014 16.2265 0 14.95 0H8.05001C6.77351 0 5.75001 1.014 5.75001 2.27864V4.55728H2.3C1.0235 4.55728 0 5.57128 0 6.83592V19.3685C0 20.6331 1.0235 21.6471 2.3 21.6471H20.7C21.9765 21.6471 23 20.6331 23 19.3685V6.83592C23 5.57128 21.9765 4.55728 20.7 4.55728Z" fill="#F44336"/>
</svg>
