<svg width="21" height="21" viewBox="0 0 21 21" fill="none" xmlns="http://www.w3.org/2000/svg">
<path d="M15.4669 11.0404C15.3468 11.0404 15.2267 11.0147 15.1066 10.9632C14.9865 10.9118 14.875 10.8345 14.772 10.7316L10.2684 6.22793C10.1654 6.12499 10.0882 6.01347 10.0368 5.89338C9.98528 5.77328 9.95955 5.6446 9.95955 5.50735C9.95955 5.37009 9.98528 5.2457 10.0368 5.13419C10.0882 5.02267 10.1654 4.91544 10.2684 4.81249L14.772 0.308823C14.875 0.205882 14.9865 0.128676 15.1066 0.0772058C15.2267 0.0257353 15.3554 0 15.4926 0C15.6299 0 15.7543 0.0257353 15.8658 0.0772058C15.9773 0.128676 16.0845 0.205882 16.1875 0.308823L20.6912 4.81249C20.7941 4.91544 20.8713 5.02267 20.9228 5.13419C20.9742 5.2457 21 5.37867 21 5.53308C21 5.65318 20.9742 5.77328 20.9228 5.89338C20.8713 6.01347 20.7941 6.12499 20.6912 6.22793L16.1875 10.7316C16.0845 10.8345 15.9773 10.9118 15.8658 10.9632C15.7543 11.0147 15.6213 11.0404 15.4669 11.0404ZM1.02941 9.59925C0.737744 9.59925 0.493259 9.5006 0.295956 9.3033C0.098652 9.10599 0 8.86151 0 8.56984V2.23897C0 1.9473 0.098652 1.70282 0.295956 1.50551C0.493259 1.30821 0.737744 1.20956 1.02941 1.20956H7.36028C7.65195 1.20956 7.89644 1.30821 8.09374 1.50551C8.29104 1.70282 8.3897 1.9473 8.3897 2.23897V8.56984C8.3897 8.86151 8.29104 9.10599 8.09374 9.3033C7.89644 9.5006 7.65195 9.59925 7.36028 9.59925H1.02941ZM12.4301 21C12.1385 21 11.894 20.9013 11.6967 20.704C11.4994 20.5067 11.4007 20.2622 11.4007 19.9706V13.6397C11.4007 13.348 11.4994 13.1035 11.6967 12.9062C11.894 12.7089 12.1385 12.6103 12.4301 12.6103H18.761C19.0527 12.6103 19.2972 12.7089 19.4945 12.9062C19.6918 13.1035 19.7904 13.348 19.7904 13.6397V19.9706C19.7904 20.2622 19.6918 20.5067 19.4945 20.704C19.2972 20.9013 19.0527 21 18.761 21H12.4301ZM1.02941 21C0.737744 21 0.493259 20.9013 0.295956 20.704C0.098652 20.5067 0 20.2622 0 19.9706V13.6397C0 13.348 0.098652 13.1035 0.295956 12.9062C0.493259 12.7089 0.737744 12.6103 1.02941 12.6103H7.36028C7.65195 12.6103 7.89644 12.7089 8.09374 12.9062C8.29104 13.1035 8.3897 13.348 8.3897 13.6397V19.9706C8.3897 20.2622 8.29104 20.5067 8.09374 20.704C7.89644 20.9013 7.65195 21 7.36028 21H1.02941ZM2.05882 7.56617H6.33087V3.24264H2.05882V7.56617ZM15.5698 8.64705L18.6066 5.58455L15.5698 2.52206L12.5073 5.58455L15.5698 8.64705ZM13.4338 18.9412H17.7573V14.6691H13.4338V18.9412ZM2.05882 18.9412H6.33087V14.6691H2.05882V18.9412Z" fill="black"/>
</svg>
